%TF.GenerationSoftware,KiCad,Pcbnew,(5.1.8)-1*%
%TF.CreationDate,2021-04-27T15:23:58-04:00*%
%TF.ProjectId,ww_power-supply - 2,77775f70-6f77-4657-922d-737570706c79,rev?*%
%TF.SameCoordinates,Original*%
%TF.FileFunction,Soldermask,Top*%
%TF.FilePolarity,Negative*%
%FSLAX46Y46*%
G04 Gerber Fmt 4.6, Leading zero omitted, Abs format (unit mm)*
G04 Created by KiCad (PCBNEW (5.1.8)-1) date 2021-04-27 15:23:58*
%MOMM*%
%LPD*%
G01*
G04 APERTURE LIST*
%ADD10C,3.200000*%
%ADD11C,2.400000*%
%ADD12R,2.400000X2.400000*%
%ADD13O,1.727200X1.727200*%
%ADD14R,1.727200X1.727200*%
%ADD15O,1.600000X3.800000*%
%ADD16O,4.300000X1.600000*%
%ADD17O,3.800000X1.600000*%
%ADD18C,1.600000*%
%ADD19R,1.600000X1.600000*%
%ADD20O,2.000000X1.905000*%
%ADD21R,2.000000X1.905000*%
%ADD22O,2.200000X2.200000*%
%ADD23R,2.200000X2.200000*%
%ADD24O,1.600000X1.600000*%
%ADD25C,1.270000*%
%ADD26C,1.800000*%
%ADD27R,1.800000X1.800000*%
G04 APERTURE END LIST*
D10*
%TO.C,REF\u002A\u002A*%
X146520000Y-159504000D03*
%TD*%
%TO.C,REF\u002A\u002A*%
X53429000Y-159504000D03*
%TD*%
%TO.C,REF\u002A\u002A*%
X53429000Y-67429000D03*
%TD*%
%TO.C,REF\u002A\u002A*%
X146393000Y-67683000D03*
%TD*%
D11*
%TO.C,J3*%
X99102000Y-70858000D03*
D12*
X104102000Y-70858000D03*
%TD*%
D11*
%TO.C,C4*%
X90000000Y-111000000D03*
D12*
X90000000Y-103500000D03*
%TD*%
D11*
%TO.C,C3*%
X90000000Y-90500000D03*
D12*
X90000000Y-83000000D03*
%TD*%
D13*
%TO.C,J9*%
X61357500Y-147185000D03*
X58817500Y-147185000D03*
X61357500Y-144645000D03*
X58817500Y-144645000D03*
X61357500Y-142105000D03*
X58817500Y-142105000D03*
X61357500Y-139565000D03*
X58817500Y-139565000D03*
X61357500Y-137025000D03*
D14*
X58817500Y-137025000D03*
%TD*%
D11*
%TO.C,J2*%
X138646000Y-102130500D03*
X138646000Y-97130500D03*
D12*
X138646000Y-92130500D03*
%TD*%
D11*
%TO.C,J1*%
X74210000Y-70858000D03*
D12*
X79210000Y-70858000D03*
%TD*%
D13*
%TO.C,J8*%
X81357500Y-147185000D03*
X78817500Y-147185000D03*
X81357500Y-144645000D03*
X78817500Y-144645000D03*
X81357500Y-142105000D03*
X78817500Y-142105000D03*
X81357500Y-139565000D03*
X78817500Y-139565000D03*
X81357500Y-137025000D03*
D14*
X78817500Y-137025000D03*
%TD*%
D13*
%TO.C,J7*%
X101357500Y-147185000D03*
X98817500Y-147185000D03*
X101357500Y-144645000D03*
X98817500Y-144645000D03*
X101357500Y-142105000D03*
X98817500Y-142105000D03*
X101357500Y-139565000D03*
X98817500Y-139565000D03*
X101357500Y-137025000D03*
D14*
X98817500Y-137025000D03*
%TD*%
D13*
%TO.C,J6*%
X121376500Y-147185000D03*
X118836500Y-147185000D03*
X121376500Y-144645000D03*
X118836500Y-144645000D03*
X121376500Y-142105000D03*
X118836500Y-142105000D03*
X121376500Y-139565000D03*
X118836500Y-139565000D03*
X121376500Y-137025000D03*
D14*
X118836500Y-137025000D03*
%TD*%
D13*
%TO.C,J5*%
X141376500Y-147185000D03*
X138836500Y-147185000D03*
X141376500Y-144645000D03*
X138836500Y-144645000D03*
X141376500Y-142105000D03*
X138836500Y-142105000D03*
X141376500Y-139565000D03*
X138836500Y-139565000D03*
X141376500Y-137025000D03*
D14*
X138836500Y-137025000D03*
%TD*%
D15*
%TO.C,J4*%
X84316000Y-72314000D03*
D16*
X89116000Y-74814000D03*
D17*
X89116000Y-68814000D03*
%TD*%
D18*
%TO.C,C7*%
X104396000Y-85286000D03*
D19*
X104396000Y-82786000D03*
%TD*%
D18*
%TO.C,C8*%
X103721000Y-110950000D03*
D19*
X103721000Y-108450000D03*
%TD*%
D20*
%TO.C,U2*%
X110396000Y-112326000D03*
X110396000Y-109786000D03*
D21*
X110396000Y-107246000D03*
%TD*%
D22*
%TO.C,D4*%
X120556000Y-120786000D03*
D23*
X110396000Y-120786000D03*
%TD*%
D11*
%TO.C,C1*%
X70080000Y-90500000D03*
D12*
X70080000Y-83000000D03*
%TD*%
D20*
%TO.C,U1*%
X110396000Y-84326000D03*
X110396000Y-81786000D03*
D21*
X110396000Y-79246000D03*
%TD*%
D24*
%TO.C,R2*%
X140656000Y-116286000D03*
D18*
X133036000Y-116286000D03*
%TD*%
D24*
%TO.C,R1*%
X140556000Y-78486000D03*
D18*
X132936000Y-78486000D03*
%TD*%
D25*
%TO.C,F2*%
X139396000Y-111786000D03*
X134296000Y-110186000D03*
%TD*%
%TO.C,F1*%
X139296000Y-84486000D03*
X134196000Y-82886000D03*
%TD*%
D26*
%TO.C,D8*%
X134396000Y-123826000D03*
D27*
X134396000Y-121286000D03*
%TD*%
D26*
%TO.C,D7*%
X134396000Y-73526000D03*
D27*
X134396000Y-70986000D03*
%TD*%
D22*
%TO.C,D6*%
X127556000Y-98063712D03*
D23*
X117396000Y-98063712D03*
%TD*%
D22*
%TO.C,D5*%
X127556000Y-93466000D03*
D23*
X117396000Y-93466000D03*
%TD*%
D22*
%TO.C,D3*%
X120556000Y-70786000D03*
D23*
X110396000Y-70786000D03*
%TD*%
D22*
%TO.C,D2*%
X54445000Y-110990000D03*
D23*
X54445000Y-100830000D03*
%TD*%
D22*
%TO.C,D1*%
X54572000Y-82415000D03*
D23*
X54572000Y-92575000D03*
%TD*%
D18*
%TO.C,C10*%
X104300000Y-100540000D03*
D19*
X104300000Y-98040000D03*
%TD*%
D18*
%TO.C,C9*%
X104300000Y-94040000D03*
D19*
X104300000Y-91540000D03*
%TD*%
D11*
%TO.C,C2*%
X70080000Y-111000000D03*
D12*
X70080000Y-103500000D03*
%TD*%
M02*
