M48
; DRILL file {KiCad (5.1.8)-1} date 04/27/21 15:24:03
; FORMAT={-:-/ absolute / inch / decimal}
; #@! TF.CreationDate,2021-04-27T15:24:03-04:00
; #@! TF.GenerationSoftware,Kicad,Pcbnew,(5.1.8)-1
FMAT,2
INCH
T1C0.0280
T2C0.0315
T3C0.0354
T4C0.0400
T5C0.0433
T6C0.0472
T7C0.1260
%
G90
G05
T1
X5.2833Y-3.2632
X5.4841Y-3.3262
X5.2872Y-4.338
X5.488Y-4.401
T2
X4.1101Y-3.2593
X4.1101Y-3.3577
X4.1063Y-3.8598
X4.1063Y-3.9583
X4.1063Y-3.6039
X4.1063Y-3.7024
X4.0835Y-4.2697
X4.0835Y-4.3681
X5.2337Y-3.09
X5.5337Y-3.09
X5.2376Y-4.5782
X5.5376Y-4.5782
T3
X5.2912Y-2.7947
X5.2912Y-2.8947
X5.2912Y-4.775
X5.2912Y-4.875
T4
X2.3156Y-5.3947
X2.3156Y-5.4947
X2.3156Y-5.5947
X2.3156Y-5.6947
X2.3156Y-5.7947
X2.4156Y-5.3947
X2.4156Y-5.4947
X2.4156Y-5.5947
X2.4156Y-5.6947
X2.4156Y-5.7947
X3.1031Y-5.3947
X3.1031Y-5.4947
X3.1031Y-5.5947
X3.1031Y-5.6947
X3.1031Y-5.7947
X3.2031Y-5.3947
X3.2031Y-5.4947
X3.2031Y-5.5947
X3.2031Y-5.6947
X3.2031Y-5.7947
X4.6786Y-5.3947
X4.6786Y-5.4947
X4.6786Y-5.5947
X4.6786Y-5.6947
X4.6786Y-5.7947
X4.7786Y-5.3947
X4.7786Y-5.4947
X4.7786Y-5.5947
X4.7786Y-5.6947
X4.7786Y-5.7947
X3.8905Y-5.3947
X3.8905Y-5.4947
X3.8905Y-5.5947
X3.8905Y-5.6947
X3.8905Y-5.7947
X3.9905Y-5.3947
X3.9905Y-5.4947
X3.9905Y-5.5947
X3.9905Y-5.6947
X3.9905Y-5.7947
X5.466Y-5.3947
X5.466Y-5.4947
X5.466Y-5.5947
X5.466Y-5.6947
X5.466Y-5.7947
X5.566Y-5.3947
X5.566Y-5.4947
X5.566Y-5.5947
X5.566Y-5.6947
X5.566Y-5.7947
T5
X2.1435Y-3.9697
X2.1435Y-4.3697
X4.6219Y-3.6798
X5.0219Y-3.6798
X4.6219Y-3.8608
X5.0219Y-3.8608
X4.3463Y-3.1199
X4.3463Y-3.2199
X4.3463Y-3.3199
X4.3463Y-4.7554
X4.7463Y-4.7554
X4.3463Y-2.7869
X4.7463Y-2.7869
X4.3463Y-4.2223
X4.3463Y-4.3223
X4.3463Y-4.4223
X2.1485Y-3.2447
X2.1485Y-3.6447
T6
X2.9217Y-2.7897
X3.1185Y-2.7897
X5.4585Y-3.6272
X5.4585Y-3.824
X5.4585Y-4.0209
X3.5433Y-4.0748
X3.5433Y-4.3701
X2.7591Y-4.0748
X2.7591Y-4.3701
X3.5433Y-3.2677
X3.5433Y-3.563
X2.7591Y-3.2677
X2.7591Y-3.563
X3.9017Y-2.7897
X4.0985Y-2.7897
T7
X5.7635Y-2.6647
X2.1035Y-2.6547
X2.1035Y-6.2797
X5.7685Y-6.2797
T2
G00X3.3195Y-2.8037
M15
G01X3.3195Y-2.8903
M16
G05
G00X3.5518Y-2.7092
M15
G01X3.4652Y-2.7092
M16
G05
G00X3.5617Y-2.9454
M15
G01X3.4554Y-2.9454
M16
G05
T0
M30
